<svg version="1" xmlns="http://www.w3.org/2000/svg" width="3968" height="3968" viewBox="0 0 2976.000000 2976.000000"><path d="M1009.2 80.1c-17.9 3.3-36.5 19-63.5 53.9-13.9 17.9-28.8 50.3-33.1 72-.3 1.4-.7 3.4-.9 4.5-.3 1.2-.8 4.8-1.2 8-.4 3.3-.9 6.9-1.1 8-.7 3.4-.6 25.7.1 32 1 9.4 3.3 22.3 5.5 30.5 1.2 4.1 2.3 8.4 2.5 9.5.6 2.5 5.3 16 7 20 .7 1.6 2.5 5.9 4 9.5 3.9 9.5 13.9 28.9 21.3 41.5 6.1 10.4 32.8 51.4 34.1 52.5 1.1.9 21.6 32.2 25.2 38.5 15.9 27.6 14.9 41.5-3.6 48.4-4.8 1.8-20.5 4.9-33 6.5-8.2 1.1-18.4 1.6-36.9 1.7-11.5.1-20.5.7-22.5 1.4-9 3.1-5.9 9.9 24 51.5 36.4 50.9 37.6 52.6 59.4 84.1 29.1 42.1 41.3 68 34.9 74.3-3.1 3.2-10.8 3.2-23.9.2-20.6-4.7-28.5-4.4-33.6 1-2.1 2.2-2.4 3.5-2.4 10.2 0 4.2.4 9.2.8 11 3.7 16 21.4 53.3 34.9 73.4 2.1 3.1 3.8 6.1 3.8 6.6s.9 1.7 2 2.7c1.1 1 2 2.2 2 2.6 0 .5.6 1.7 1.4 2.6.8 1 4.8 6.3 8.9 11.8 59 79 152.6 132 277.8 157 6.3 1.3 29.9 5.5 33.9 6 7 1 11.3 1.6 14 2 1.4.3 4.8.7 7.5 1 2.8.3 6.1.8 7.5 1 1.4.2 5.7.7 9.7 1 4 .4 8.5.8 10 1 1.5.2 6.6.6 11.3 1 4.7.3 10.5.8 13 1.1l4.5.5-2.5-1.8c-1.4-1-3.2-2.3-4-3-.8-.6-6.2-4.8-12-9.3-20-15.4-40.6-33.6-60-53-22.7-22.6-26.4-26.7-45.4-49.5-55.9-66.9-103.7-148.1-141.6-240.5-2.3-5.8-4.9-11.9-5.6-13.6-2.9-6.6-17.4-46.6-21.9-60.4-2.6-8-5.1-15.4-5.6-16.5-.4-1.1-1.5-4.5-2.4-7.5-.9-3-3.2-10.9-5.2-17.5-3-10.3-12.7-45-13.8-49.5-.2-.8-.8-3.5-1.5-6-.9-3.7-3-12.5-4.4-19-.2-.8-.9-3.4-1.5-5.7-1.4-5.2-6.7-30.2-8.6-40.8-.8-4.4-1.7-9.1-2-10.5-.4-2.2-3.7-21.3-5-29.3-1-5.9-1.4-8.4-1.9-13.7-.4-4.4-.4-4.8.4-2 .4 1.9 1.1 4.8 1.3 6.5 1.4 7.8 6 28.4 10.2 45.6 1.5 5.7 2.8 11.5 3.1 12.9 2.2 10.6 20.2 69.9 29.2 96 2.2 6.3 4.7 13.7 5.6 16.5.9 2.7 2.1 5.9 2.6 7 .5 1.1 2.4 6.3 4.3 11.5 15.6 42.7 44.3 105.7 65.7 144.5 17.1 31 40.7 69.1 55 89 19.8 27.4 34 45.7 49.4 63.5 13.5 15.7 15.6 17.9 34.1 36.6 15.5 15.6 22.8 22.6 35.6 33.9 5.9 5.2 22.7 18.8 30.4 24.5 3.3 2.5 6.2 4.7 6.5 5 2.7 3 50.8 35 52.6 35 .2 0 2.1 1.1 4.2 2.3 5.7 3.6 13.2 7.7 14.1 7.7.4 0-4.4-7.8-10.7-17.3-6.2-9.4-11.6-17.9-12-18.7-.3-.8-1.8-3.4-3.4-5.7-1.5-2.3-2.8-4.4-2.8-4.6 0-.2-2.3-4.4-5-9.2-7.5-12.9-23-44.9-29.8-61.5-10.8-26-20.8-58.3-25.6-82-2.3-11.6-4.1-22.2-5.1-30.5-1.3-11.2-2.5-20.7-3-24.5-.4-2.7-1.1-7.9-2-15-.3-2.5-.8-5.6-1-7-.2-1.4-.7-4.9-1-7.9-.4-3-.9-6.3-1.1-7.5-.2-1.2-.6-3.9-.9-6.1-3.1-25-11-61.6-16.5-76.6-5.8-16.1-14.5-27.6-20.9-28.1-11.8-.8-16.5 1.6-29.9 15-5.6 5.6-11.5 10.7-12.9 11.3-14.4 5.4-26.4-25.2-43.2-110.1-3.3-16.8-6.5-32.8-7.1-35.5-.5-2.8-1.2-6.2-1.4-7.8-.3-1.5-.7-3.5-1-4.5-.3-.9-.7-3.3-1-5.2-.3-1.9-.8-4.7-1.1-6.3-.3-1.5-.7-3.7-.9-5-.2-1.2-1.8-9-3.5-17.2-2.8-13.8-4.1-19.8-8.5-40.3-.9-4.1-2.8-11.9-4.2-17.5-1.4-5.6-2.7-10.7-2.8-11.2-1.9-8.1-8.1-27.4-12.2-37.8-11-27.5-22.8-38.2-35.2-31.8-5 2.7-8.1 5.5-13.7 12.6-2.6 3.3-6.2 7.3-7.9 8.9-3.6 3.3-10.1 6.5-12.5 6.1-.9-.2-2.2-.4-2.9-.4-.7-.1-3.2-1.9-5.7-4.2-5.9-5.4-11.7-17.1-17.3-34.9-2.3-7.5-9.9-35.7-11.7-44-.2-.8-1.3-5.6-2.3-10.7-1.1-5-2.2-9.5-2.5-10-.3-.4-.8-2.4-1.1-4.3-.3-2-1.2-6.5-2.1-10-.9-3.6-1.8-7.6-2.1-9-.3-1.4-.7-3.3-1-4.2-.3-.9-.7-2.5-.9-3.5-3.4-15.8-14.2-51.9-18.6-62.5-1.7-4-3.3-8.2-3.6-9.3-1-3.3-8.6-17.7-12.7-23.8-11.1-16.7-25.3-24.3-40.4-21.6zM1732.7 160.6c-.1.1-4.5.4-9.7.8-5.2.3-10.4.8-11.5 1-1.1.2-6 1.1-11 2.1-17.3 3.2-34.7 8.9-48.9 16.1-6.5 3.3-19.5 11.1-20.6 12.4-.3.3-3.4 2.9-7 5.7-22 17.4-40.4 45.8-51.5 79.7-2.4 7.4-4.7 14.4-5 15.7-2.6 11.5-7.4 35.4-7.9 39.4-.3 2.7-.8 5.9-1 7-.2 1.1-.7 4.9-1.1 8.5-.4 3.6-.9 7.4-1.1 8.5-.2 1.1-.6 4.5-.9 7.5-.3 3-.7 7.1-1 9-.2 1.9-.7 6.4-1.1 10-.4 3.6-.8 7.4-.9 8.5-.2 1.1-.6 4.5-.9 7.5-4.5 37.4-13.1 50.2-30.1 44.9-11-3.4-32.9-18.1-55.9-37.6-5.4-4.4-10.9-8.4-12.4-8.8-6.8-1.7-9.1 7.9-12.7 53-.4 4.4-.8 9.3-1 11-.2 1.6-.6 6.6-1 11-.9 11.8-2.2 26.3-3 32.5-.2 1.9-.7 7.1-1.1 11.5-1.6 19.2-4.5 41.3-6.9 53.5-2.2 11.2-3.1 14.4-5.7 21.2-5.8 15.2-10.4 14.6-24.4-2.8-14.9-18.5-22.5-20.8-30.9-9.4-3.1 4.2-3.1 5.1.1 8.1 9.6 8.9 19.9 29.3 26.5 52.2 2.6 9.3 8.1 33.1 9.4 40.9.3 1.8.7 4.4 1 5.8.3 1.4.7 4.1 1 6 .3 1.9 1 6 1.5 9s1.2 7.5 1.5 10c.3 2.5.8 5.6 1 7 .2 1.4.6 4.1.9 6 .3 1.9 1 7.3 1.6 12 .7 4.7 1.4 9.8 1.6 11.5.1 1.6 1 8.2 1.8 14.5.8 6.3 2 15.3 2.6 20 1.4 11 6.4 35.5 9.1 44.5 1.1 3.8 2.6 9.2 3.4 12 1.4 5 9.2 27.4 11.5 33 .7 1.6 1.8 4.3 2.5 6 .7 1.6 2.5 5.8 3.9 9.3 8.6 20.6 28 56.8 39.8 74.4 2.1 3.1 3.8 6.1 3.8 6.7 0 .5.5 1.3 1.2 1.7 1.1.7.8-3.3-.6-10.2-.2-1.2-.7-3.9-1-6-1.4-8.9-2.6-16-3-17.9-.2-1.1-.7-4.7-1.1-8-.3-3.3-.8-7.4-1-9-2.2-17.4-2.2-83.9 0-97.7.2-1.3.6-5.9 1-10.3s1.3-13.4 2.1-20 1.6-13.4 1.8-15c.2-1.7.6-4.4.9-6 .3-1.7.9-4.8 1.2-7 .3-2.2 1-6.5 1.5-9.5s1.2-7.1 1.5-9c.5-3.2.8-4.9 1.9-10.5 4.9-24.2 12.8-56.2 19.2-77.7 4.3-14.6 21.6-65.9 24.3-72.3.5-1.1 3.5-8.5 6.6-16.5 17.9-45 41.8-94.7 66.3-137.5 9-15.8 24.2-40.5 24.9-40.5.2 0-.4 1.5-1.5 3.2-6.9 11.6-21.8 40.3-33.2 64.2-25.6 53.8-52.6 126.7-65.6 177.6-.2.8-1.3 5.1-2.5 9.5-2.9 11.3-9.6 40.4-11.4 50-2 10.5-3.9 21-4.9 27-.8 4.6-3.4 22.5-4 27.5-2 16.2-2.6 22.4-3.1 29.4-.4 4.4-.8 9.4-1 11-.6 4.7-1.7 37.7-1.8 50.6 0 12.1 1.2 41.7 1.8 46 .2 1.4.6 6.1 1 10.5.6 7.9 1.3 14.7 2 19.5.2 1.4.7 4.5 1 7 1.1 7.8 3.8 24 4.9 28.5.2 1.1 1.2 5.4 2.1 9.5 4.7 22 14.9 56.9 20.9 71.2l1.4 3.1.6-4.9c.3-2.7.8-7.3 1.2-10.3.3-3 .7-6.1.9-7 .1-.9.6-3.9.9-6.6 5-37.4 19.7-89.7 34.8-123.5 9.6-21.5 17.3-35 38.2-66.8 41.5-63.2 55.8-90 58.5-109.3 1.3-9.7-1.4-15.5-8.7-19.1-3.9-1.8-6.3-2.2-13.7-2.1-4.9 0-11.9.4-15.5.8-5.6.6-6.8.5-8.9-1.2-5.6-4.6-3.7-17.2 5.8-38.8 2.6-5.9 17-34.5 18.1-36 .4-.6 2.7-4.6 5.1-9 6.4-11.9 7.4-13.6 20.3-36.2 47-82.1 62.6-114.2 66.9-137.3 4.1-22-4.3-29.6-27.3-24.7-11.6 2.5-19.9.3-22-5.6-3.6-10.4 1.9-26.8 22-66.2 5.9-11.6 15.9-31.1 22.2-43.5 24.3-47.6 32.9-72.5 32.4-94-.2-9.9-3.1-17.3-8.7-22.8-3.6-3.5-11.2-7.4-16.7-8.7-3.2-.7-18.1-2.3-18.5-1.9zM2076 553.1c-41.5 3.2-76.5 23.5-133 76.9-24.7 23.4-38.1 33-46.2 33-1.6 0-4.2-.7-5.9-1.5-2.8-1.5-8.9-8.8-8.9-10.7 0-.6-.6-2.4-1.4-4.1-2.3-5.2-6.6-20-7.9-27.7-.3-1.4-1-5.2-1.6-8.5-.6-3.3-1.3-7.8-1.6-10-1.1-7.9-2.9-13.7-4.6-14.6-3.8-2-10.1 2.8-31.9 24.1-59.3 58.1-74.8 72.3-88.5 81.4-9.4 6.3-13.6 7.9-16.9 6.6-3.2-1.2-3.9-4.8-4.1-20.5-.1-10.3-.4-13.7-1.8-16.2-2.9-5.5-9.7-6.1-20-1.8l-3.8 1.6 5.5 5.9c5.7 6.2 10.5 15.2 12.5 23.2 1.2 5 1.5 18.5.6 23.3-1.7 8.3-2.7 12.1-5.9 20.7-8.3 23-21.3 45.7-59.4 103.8-19.7 30-27.8 44.7-36.1 65.6-6.2 15.7-11.3 31.3-9.3 28.4 11.2-16 45.2-52.7 66.7-72 3.9-3.5 8.8-8 11-10 7.3-6.7 34.8-28.4 48-38 65.2-47.2 148.8-90.1 230.3-118 18.3-6.2 25.7-7.8 12-2.5-49.6 19.1-114.4 51.4-154.3 77-26.2 16.7-41.6 27.3-58.9 40.5-5.4 4.1-11.1 8.4-12.5 9.5-3 2.2-12.3 9.7-13.1 10.5-.3.3-3 2.5-6 5-21.8 18-56.7 52.5-72.6 72-1.6 1.9-3.7 4.4-4.7 5.5-12.2 13.5-37.3 49.7-49.1 71-15.2 27.4-18.3 35-20.1 49.5-.8 6.7-1 7-3.9 7-1.9 0-2.8 1.1-4.5 5.2-1.2 2.8-2 5.2-1.8 5.4.1.2 2.3-1.5 4.7-3.7 7.1-6.4 24.2-21.1 28.4-24.4 2.1-1.7 4.4-3.5 5-4 3.6-3.3 21.9-15.9 34.5-23.9 12.2-7.6 36-20.2 49.6-26.2 8.4-3.7 24.9-9.1 46.7-15.4 13.4-3.9 28.1-8.2 32.8-9.7 4.7-1.5 8.7-2.7 9-2.8 1.8-.3 19-6.3 26.1-9.1 21.6-8.3 32.1-14.8 36.8-22.4 4.9-8.1.6-17-12.4-25.5-6.8-4.4-10.5-8-10.5-10.2 0-7.4 13.8-16.5 43.6-28.9 9.4-3.9 47.1-17.9 58.9-21.9 12.4-4.1 47.6-17.1 60.5-22.3 35.4-14.1 56-25.8 63.2-35.6 2.5-3.5 2.9-4.8 2.5-8.5-.7-5.9-2.9-8.5-12-14.1-9.3-5.6-12.7-8.9-13.3-13.3-.6-4.2 2.1-8.6 8.3-13.2 7.2-5.4 30-16.2 55.8-26.5 58.4-23.3 78.4-33.5 93.8-47.9 23.2-21.7 13.4-44.1-29.8-68.2-26.6-14.8-51.8-20.8-78.5-18.8zM1985.5 687c-2.7 1.2-4.3 1.2-2.5 0 .8-.5 2.2-.9 3-.9 1 0 .8.3-.5.9zM1433.8 1065.5c-.2.2-6.1.6-13.3 1-7.1.3-15 .8-17.5 1-2.5.2-7.6.6-11.5.9-3.8.4-8.6.8-10.5 1.1-3.1.4-13.5 1.7-24.5 3.1-3.3.4-18.3 2.8-30.5 4.9-5.9 1-13.1 2.5-22 4.5-5.2 1.2-10.6 2.4-12 2.6-5.3 1-23.3 5.8-39.5 10.4-89.9 25.9-177.1 70.3-252 128.4-11.2 8.6-28.6 22.8-32.1 26.1-.6.5-4.2 3.8-8 7.1-31.6 28.1-67.4 66.3-91.5 97.5-4.4 5.7-8.7 11.3-9.6 12.3-11.5 14.1-40.9 59-53.8 82.1-1.5 2.7-4.6 8.4-6.9 12.5-12.1 21.9-30.7 62.2-40.4 88-4.1 10.8-12.3 33.7-12.7 35.5-.1.5-.5 1.7-.8 2.5-4.5 11.9-18.8 66.6-22 85-.3 1.4-1.2 6.3-2.1 11-1.7 9.3-2 11.2-3.6 21.5-.6 3.8-1.3 8.1-1.5 9.5-.2 1.4-.7 5-1 8-.3 3-.8 6.8-1 8.5-.6 3.6-1.3 10.9-2 19-.3 3.3-.8 7.8-1 10-2.6 23.1-2.6 97.3 0 121 .2 2.2.7 7.2 1 11.1.3 3.9.7 8 .9 9 .2 1.1.7 5 1 8.9.7 6.2 2.3 18.4 4.2 30 .6 3.8 6 33.4 7 38.3 7.8 38.6 28.2 102.7 43.6 137.1 1.1 2.5 2.6 5.9 3.3 7.6 7.3 17.2 27 56.5 34.6 69 1.1 1.6 2.3 3.9 2.9 5 .5 1.1 2 3.7 3.2 5.7 1.3 2.1 4.3 7 6.7 11 8.5 14.1 36.3 55.3 39.1 57.8.3.3 3.2 4.1 6.5 8.4 3.3 4.3 6.4 8.4 7 9 .6.6 2.6 3.1 4.5 5.6 10.6 13.9 33.3 39 52.6 58.5 50.7 50.7 105.7 92.4 168.4 127.4 13 7.3 55 27.7 68 33.1 6.9 2.9 13.9 5.8 15.5 6.6 10.8 4.8 52.6 19.2 71 24.4 6.1 1.7 13.3 3.7 16 4.5 2.8.8 10 2.6 16 4 6.1 1.4 12.8 3 15 3.5 6.4 1.6 33.6 6.8 38.5 7.5 2.5.3 5.2.8 6 1 .8.2 3.5.6 6 .9 2.5.3 5.4.8 6.5 1 1.1.2 4.7.7 8 1 3.3.4 6.9.9 8 1.1 1.1.2 3 .4 4.2.4 1.4.1 2.1.6 1.8 1.3-.3.8 2.4 2.8 6.9 5.1 9.2 4.7 18.1 11.4 26.5 19.8 6.7 6.8 15.6 18.1 18.8 23.9 1.1 1.9 3.1 5.6 4.5 8.1 6.8 12.1 12.9 31.2 16.7 52.4 1.6 8.9 1.9 14.3 1.6 28-.1 9.3-.6 18.2-.9 19.7-.3 1.6-.8 4-1.1 5.5-1.9 11.4-5.9 24.5-13.2 43.8-7.1 18.9-9 24.1-12.7 36.5-2.7 9.2-3.2 11.5-5.3 24.5-1.2 7.5-.8 32.3.5 38 .7 2.7 1.4 5.9 1.6 7 3.2 17.2 14.1 41 28.9 63.1 8.2 12.3 13.3 19.1 12.5 16.9-.2-.6-3.3-7.1-7-14.5-10.1-20.6-16.8-40.4-19.5-57.5-1-6.3-1-29.3 0-36.5 1-7.1 6.5-23.5 11.1-33 4.3-9 13.1-25.7 14.4-27.3 1.1-1.4 11.1-20.2 15.4-28.9 5.4-11.2 9.2-21.4 13.8-37.8 1.6-5.4 3.9-17.3 4.7-24.2 1-8.2 1-41.3 0-50.3-2.9-26.3-9.8-50.9-20.1-71.4l-3.6-7.1 6.2-.1c10.8-.1 31-1.1 46.8-2.4 14.6-1.1 20.5-1.7 21-2 .3-.2 3.7-.6 7.5-.9 3.9-.4 9.7-1.1 13-1.6 3.3-.5 7.8-1.1 10-1.5 4.3-.6 6.6-1 16-2.6 16.4-2.8 54.5-11 59.5-12.9 1.4-.5 3.6-1.2 5-1.4 3.9-.8 16.5-4.4 27.5-7.8 5.5-1.7 10.5-3.3 11-3.4 6.7-1.5 53.9-19.6 68.9-26.4 3.9-1.7 8.6-3.8 10.5-4.7 56.1-25 119.5-64.7 167.5-104.7 16.1-13.4 16.1-13.4 22.5-19.1 38.9-35 72.7-72 102.4-112 5.4-7.2 10.1-13.5 10.5-14 .6-.8 7.8-11.4 15.2-22.5 5.7-8.4 10.9-16.8 18.1-29 22.6-38.4 36.4-66.3 52.4-106.5 13.2-33.1 28.6-82.3 33.9-108.5.3-1.4 1.7-7.7 3.1-14 1.3-6.3 2.7-13.3 3-15.5.3-2.2.8-4.7 1-5.5.2-.8.7-3.1 1-5 .3-1.9.8-4.2 1-5 .2-.8.6-3.8 1-6.5.3-2.8 1-7.7 1.5-11s1.1-7.7 1.4-9.7c.3-2 .8-6.1 1.1-9 .3-2.9.7-6.2.9-7.3.2-1.1.7-5.8 1.1-10.5.4-4.7.8-10.1 1-12 2.6-26.4 2.6-103.5 0-121-.2-1.4-.6-5.9-1-10-.3-4.1-.8-9.1-1-11-.9-7.3-1.6-12.7-2.5-19.5-.6-3.9-1.2-8.8-1.5-11-.2-2.2-.7-4.9-.9-6-.2-1.1-1.1-6.3-2-11.5-.9-5.2-1.9-10.9-2.2-12.5-1.1-5.9-5.5-26.1-7-32-.9-3.3-1.8-6.8-2-7.8-.2-1-.6-2.7-.9-3.7-.3-1-.8-2.8-1-4.1-1.9-9.8-14.7-50.4-22.6-71.4-13.2-35.6-33.6-79.6-50-108-2.9-5-5.7-9.9-6.3-11-.6-1.1-4.2-7.1-8.1-13.3-3.8-6.2-7.9-12.7-9-14.5-5.8-9.5-33.3-48.1-39.2-55.2-.4-.6-4.8-6-9.8-12-8.5-10.5-16.2-19.6-25-29.5-8.9-10-50.7-51.3-61.5-60.6-33.6-29.3-71.4-57.3-102-75.8-2.5-1.5-5.4-3.2-6.5-3.9-20.9-12.9-48.9-27.6-76.8-40.6-4.9-2.3-9.1-4.1-9.3-4.1-.2 0-2.7-1.1-5.6-2.4-2.9-1.3-10.7-4.5-17.3-7.1-6.6-2.6-12.9-5.1-14-5.6-3.8-1.6-24.1-8.7-31-10.9-3.8-1.2-7.7-2.4-8.5-2.7-.8-.3-1.9-.7-2.5-.9-.5-.1-8-2.2-16.5-4.7-14.8-4.2-30.6-8.4-35.3-9.2-1.2-.3-4-.9-6.2-1.4-7.4-1.9-22.9-5.1-32-6.6-8.3-1.5-10.8-1.8-19-3.1-1.6-.2-4.1-.6-5.5-.9-3.1-.5-8.1-1.2-14.5-2-2.7-.3-6.1-.8-7.5-1-1.4-.3-5.6-.7-9.5-1.1-3.8-.3-8.2-.7-9.8-.9-1.5-.2-7.3-.7-13-1-5.6-.4-11.8-.9-13.7-1.1-3.9-.5-70.7-1.3-71.2-.9zm-455.3 374c1.7.3 5.3 1.1 8.2 1.8l5.2 1.2-12 14.5c-21.2 25.6-47.8 60.9-67.6 89.7l-9.2 13.2 4 3.6c2.2 2 4.4 3.5 4.9 3.3.5-.2 5.5-4.8 11.2-10.4 12-11.7 24.9-22.3 36.7-30.2 8-5.3 26.4-15.2 30.6-16.5 1.1-.3 5.4-1.7 9.5-3.2 7.1-2.5 26.9-6.9 27.6-6.2.2.2-2.6 4.2-6.3 8.8-7.3 9.3-29.9 39.4-35.6 47.6-2.1 2.9-5.2 7.4-7 10-1.9 2.7-6.8 9.9-11.1 16.2l-7.8 11.4 2.5 2.5 2.5 2.5 14.9-15c26.3-26.6 47.3-39.9 74.4-47.2 4.7-1.2 6.9-1.5 6.6-.7-.3.6-5.6 9-11.9 18.6-10.3 15.6-38.8 62.2-38.8 63.4 0 .2-2.4 4.6-5.4 9.8-2.9 5.1-7.2 12.8-9.4 17l-4 7.8 2.8 2 2.9 2.1 2.4-3.8c1.3-2.1 3.7-6.1 5.2-8.8 3.7-6.3 13.6-20.4 18.9-27 18.7-22.9 42.6-40.4 66.2-48.6 6.7-2.2 6.7-2.6-1.3 10.3-7.8 12.5-6.9 11.1-17.6 29.8-12 20.9-17.9 31.6-25.2 45.9l-5.9 11.3 2.4 2 2.4 1.9 2-3.8c1.1-2.1 2-4 2.1-4.3 0-.3.8-1.6 1.6-3 .9-1.4 3.1-5 4.9-8 16.6-27.1 39.4-48.8 63.1-59.9 10.3-4.9 11.8-5.1 9.3-1.4-3.2 4.9-20.9 33.6-23.8 38.8-7.3 12.7-11.6 20.6-11.6 21 0 2 10.7-6.2 19-14.5 1.9-1.9 15.7-13.4 27.4-22.9 12-9.7 14.1-11 15.3-9.8 1.2 1.2.5 3-5.1 12.7-3.6 6.2-6.6 11.7-6.6 12.1 0 .5-.4.9-.8.9s-1.3 1.2-1.9 2.7c-.6 1.6-2.8 5.7-4.8 9.3-2.1 3.6-6.6 12-10.1 18.6-5.8 11-6.3 12.3-4.8 13.5 1.4 1.2 2 .9 4.1-1.6 12.4-14.9 20.4-22.9 29.8-29.9 6.7-5 17.4-11 18.2-10.2.4.4-3.4 7.8-9.2 18.1-1.2 2.2-6.6 12.8-11.9 23.5-5.4 10.7-10.1 20.2-10.6 21.2-.6 1.1-.5 2 .4 2.7 1 .8 2.8-.9 7.9-7.7 12.6-16.6 24.2-27.3 38.3-35.2 2-1.2 3.8-1.9 4-1.7.2.2-1.4 3.7-3.5 7.8-7.8 14.9-19.9 39.4-19.6 39.7.2.2 3-1.5 6.2-3.7 11.5-7.8 24.9-13.9 36.6-16.5 3-.7 3.3-.4 1.4 1.6-1.6 1.7-13.4 16.7-23.6 30.2-5.8 7.6-8 11.1-7.2 11.9.7.7 3-1 7.8-5.7 7.5-7.5 11.2-10.2 9.4-6.7-1.2 2.1-8.8 24.2-9.6 27.6-.2 1.1-1.3 5.8-2.4 10.5-3.3 14.7-4.6 27.2-4.6 46 .1 13.4 1.3 32.8 2.2 34.3.2.4.7 2.4.9 4.5.6 4.9 3.8 18.1 6.2 26 1.7 5.4 1.8 6.1.4 5-3-2.4-9.7-10-11.7-13.2-1-1.7-2.2-3.3-2.5-3.6-.4-.3-1.5-2-2.5-3.8-1.9-3.1-4.3-3.9-3.7-1.1.4 1.7 10.4 25.1 14.2 33.4 6.2 13.5 7.1 15.7 6.6 16.3-.4.3-2.3-1-4.2-2.9-2-1.9-4.6-4.3-5.8-5.4-1.2-1.1-6.8-6.4-12.4-11.8-5.6-5.3-10.6-9.7-11.2-9.7-1.9 0-1 3.4 7.4 28.3 4.6 13.6 8 25 7.5 25.2-1.1.7-14.8-12.9-20.6-20.5-7.3-9.6-14.7-22.1-20.2-34.5-3.7-8.2-5.4-11-6.8-11-2 0-2.1 1.5-.3 8 .6 2.2 1.3 5.1 1.6 6.4 1.9 9 11.3 41.8 18 63 3 9.5 5.3 17.5 5 17.8-.6.7-9.4-6.5-15.1-12.2-4.4-4.4-17.5-20.7-24.4-30.4-2.4-3.4-4.5-6-4.7-5.8-.3.3 12.6 39.7 15 45.7.8 1.9 3.3 8.6 5.6 14.9 3.6 9.8 4 11.5 2.8 12.8-1.3 1.2-1.9.9-4.7-2.6-1.8-2.2-4.2-5-5.3-6.3-1.1-1.3-3.7-4.3-5.7-6.8s-3.8-4.7-4.1-5c-1.1-1-19.6-24.6-25.9-33-3.5-4.7-6.8-8.9-7.2-9.4-1.3-1.5 16.7 49.4 20.1 56.9 1.5 3.1 12 29.6 12 30.1 0 1-8.9-4.2-14.5-8.5-18.8-14.4-31.1-31.9-52.2-74.3-9.7-19.5-10.5-20.7-12.3-19.6-1.1.7-2 1.5-2 1.9 0 1.2 10.6 34.1 16.3 50.4 8.5 24.3 27.1 72.1 28.8 74 .5.5.9 1.5.9 2.2 0 1-.6 1-2.7.1-3.2-1.4-16.2-9.9-20.1-13.2-9.1-7.5-16.7-15.1-23.7-23.6-2-2.5-4.4-5.4-5.3-6.5-10-11.9-27.8-44.9-36.3-67.3-.9-2.2-1-2.2-4.1-.6-1.8.9-3.4 1.7-3.5 1.9-1.1.8 28.3 83.6 33.7 95 .5 1.1 1.9 4.5 3.1 7.5 1.1 3 2.7 6.8 3.4 8.5 8.7 19.7 14.4 32.9 14.2 33.2-1 1-22.3-11.1-30.2-17.2-12.1-9.4-25.3-22.9-36-37-8-10.6-23.5-34.9-24.9-39-.4-1.1-1.3-2.8-2-3.8-1.3-1.7-1.6-1.7-4.6-.2-2.3 1.2-3 2.1-2.5 3.3.4.9 1.5 3.9 2.5 6.7 1.7 4.9 10.1 26 11.9 30 .5 1.1 3.2 7.6 6.1 14.5 7.9 19 17.1 39.2 29.1 63.9 6 12.3 10.7 22.6 10.4 22.9-1.7 1.7-27.5-10.8-38.5-18.6-17.8-12.6-36.2-31.6-54.7-56.5-3.6-4.8-6.7-8.7-7-8.7-1.1 0-7.3 5.6-7.3 6.7 0 .7 3.3 8.5 7.4 17.5 19.9 43.9 37.3 78.5 58.3 115.5 3.4 6.2 6.3 11.4 6.3 11.6 0 .2-1.8.2-4 0-2.5-.2-7.6-2.4-13-5.5-21.6-12.3-39.6-29-59.8-55.3-2.3-3-11.2-17.1-15.5-24.5-18.4-31.8-33.8-75.1-43.2-121.3-2-9.9-6.3-35.9-7.1-43.2-.3-3.3-.8-6.8-1-7.8-.1-.9-.6-5.4-1-10-.3-4.5-.8-8.4-.9-8.7-.2-.3-.7-7.3-1.2-15.5-1.5-27.6-.8-91.7 1.2-109 .2-1.7.6-6.4 1-10.5.3-4.1.8-8.9 1-10.5.2-1.7.6-5 .9-7.5 1.2-9.7 2.3-18.1 3.2-23.8.6-4.2 4.1-24.4 4.9-28.2.3-1.4 1.2-6.1 2.1-10.5 2.3-11.6 8.8-37.4 12.4-49 1.7-5.5 3.3-11 3.5-12.2.7-3.2 11.8-33.5 15.3-41.8 11-26.2 22.2-47.4 35.1-66.5 10.3-15.3 19.3-26.3 31-38.1 10.4-10.3 19.1-17 35.6-27.7 1.9-1.2 14.4-1 22 .3zm1003.2 36.6c5.6 3.1 22.3 13.7 23.3 14.9.3.3 3.2 2.8 6.5 5.5 32.9 27.4 60.3 72.2 78.6 128.4 2.8 8.6 5.2 16.3 5.4 17.1.2.8 1.7 6.9 3.4 13.5s3.4 13.1 3.6 14.5c.3 1.4.7 3.6 1 5 .3 1.4 1 4.7 1.5 7.5.6 2.7 1.2 6.1 1.5 7.5.3 1.4.8 4 1.1 5.9.3 1.8.8 4.3 1 5.5.2 1.1.6 4.1.9 6.6.3 2.5.8 5.4 1 6.5.2 1.1.7 4.5 1 7.5.3 3 .8 6.6 1 8 .2 1.4.7 6.1 1.1 10.5.3 4.4.8 8.7.9 9.5 2.7 14.3 2.6 101.8 0 124-.2 1.9-.7 6.6-1 10.5-.3 3.8-.8 8.8-1.1 11-.2 2.2-.7 6-.9 8.5-.3 2.5-.7 5.6-1 7-.2 1.4-.7 4.7-1.1 7.5-.8 6.7-3.8 25-5.9 35.5-.2 1.4-.7 3.8-1 5.5-2.5 13.1-11.1 47.8-13.5 54.5-.4 1.4-2.1 6.5-3.5 11.5-2.4 8-8.9 26.6-11.8 33.5-.5 1.4-1.1 2.9-1.3 3.5-1.1 4.9-18.1 40.2-25.3 53-2.7 4.7-19.2 29.8-20 30.5-.4.3-2.2 2.5-4.1 5-6.2 8-8.3 10.3-19 21-13.1 13-14.9 14.5-27.3 22.8-9.3 6.2-10.4 6.6-15.1 6.4-7.5-.3-14.3-1.2-21.8-2.9l-6.8-1.5 5.3-6.2c2.8-3.4 6.8-8.2 8.7-10.6 1.9-2.4 5.1-6.3 7-8.5 1.9-2.3 6.9-8.6 11-13.9 4.1-5.4 8-10.3 8.5-10.9 3.9-4.4 30-40.6 41.6-57.7l6.7-9.8-4.5-3.7-4.4-3.7-5.3 5.3c-21.9 22.3-40.6 36.5-61.3 46.9-14.3 7.1-30.6 12.5-43.8 14.6-2.2.3-4.3.8-4.7 1.1-1.9 1.1-.4-1.4 4.3-7.4 18-23 38.7-51.3 54.8-75.2l8.4-12.4-2.8-2.4-2.8-2.4-2.9 3.3c-24.1 27-45.6 43.5-69.3 53.3-8 3.4-22.5 7.8-23.2 7.1-.2-.2 5.4-9.3 12.5-20.2 11.2-17.2 30.2-48 30.2-48.9 0-.1 2.5-4.4 5.5-9.4 3-5.1 5.5-9.4 5.5-9.6 0-.2 1.3-2.6 2.8-5.2 1.6-2.7 5.2-9.2 8-14.5l5.2-9.6-2.5-1.6c-2.9-1.9-4.1-2-4.9-.4-.3.7-1.7 3.1-3.1 5.3-1.3 2.2-3.2 5.3-4.1 7-1.9 3.3-11.5 17.7-12.4 18.5-.3.3-2.1 2.5-4 5-11.1 14.5-30.2 31.2-45.4 40-8.4 4.9-26.4 12.6-27.2 11.7-.3-.3 2.4-5.1 5.9-10.8 7.9-12.9 24.7-41.6 24.7-42.4 0-.3 1.1-2.2 2.3-4.3 2.9-4.5 8.5-14.8 16.3-30l5.9-11.3-2.4-1.8-2.4-1.8-3 5.6c-19.9 37.8-47 64.4-78 76.6-2.1.8-3.7 1.1-3.5.7.2-.4 2.8-4.7 5.8-9.6 14-22.3 31-51.3 31-52.9 0-1.6-2-.5-6.6 3.7-9.5 8.5-30 25.9-41.7 35.3-10.8 8.7-12 9.4-13.5 8-1.1-1.2-1.2-1.9-.5-2.9 1.3-1.5 15.3-25.8 15.3-26.4 0-.2 1.1-2.1 2.4-4.2 1.3-2.1 6-10.8 10.5-19.4 7.7-14.7 8.1-15.7 6.2-16.7-1.6-.9-2.3-.5-4.4 2.3-7.7 10.1-19.1 21.7-27.7 28.3-6.1 4.7-9.6 6.8-17.9 10.8l-3.4 1.7 2-3.4c7.2-11.8 32.3-61.9 31.7-63-1.2-1.9-3.2-.3-7.9 6.4-6.5 9.3-22.4 25.4-30 30.5-7.4 4.9-15.4 9.1-13.8 7.2 1.4-1.7 24.4-47.2 24-47.5-.1-.2-3.8 2-8 4.8-4.3 2.7-10.9 6.5-14.5 8.3-6.6 3.2-19 7.5-21.8 7.5-.8 0 1.8-4.1 5.9-9.3 15-18.9 25.8-34 24.9-34.9-.5-.5-4 2.1-8.7 6.6-4.3 4.2-8.1 7.6-8.6 7.6s0-1.9 1-4.3c7.7-18 12.5-37.5 15-61.2.8-7.8.7-40-.2-44-.3-1.1-.8-4.7-1.2-8-.4-3.2-.8-6.6-1-7.5-.2-.8-1.1-4.9-2-9-.9-4.1-2.7-11.1-4-15.5l-2.5-8 4.8 5c5.4 5.6 12.6 15.1 14.4 19 .8 1.8 1.5 2.2 2.3 1.5 1-.8-.8-5.9-7.5-21.3-4.8-11.1-9.7-22.4-11-25-2.3-4.9-2.2-7 .3-4.6 15.4 14.8 30.3 28.5 31.4 28.7 2.1.5 1.4-2.2-7.7-29.6-4.3-12.7-7.4-23.4-7-23.7 1-.6 15.2 13.6 20.6 20.7 8.4 10.8 16.5 25.2 23.8 42.4 1.4 3.3 2.2 4.1 3.7 3.7 1.3-.4 1.8-1.1 1.4-2.3-.3-1-.8-2.8-1-3.9-.2-1.2-1.1-4.9-2.1-8.4-.9-3.4-2-7.8-2.5-9.7-2.4-10.2-9.1-33.3-15.6-54-5.8-18.6-5.6-18-5-18 1.2 0 11.5 8.9 16.8 14.4 2.9 3.2 10 11.9 15.7 19.4 5.7 7.6 10.7 14.1 11.2 14.6 1.5 1.5-6.7-23.5-17.1-52.1-6.1-16.8-6.9-19.5-5.6-20.7 1.2-1.3 2.1-.6 6.8 5.1 3 3.6 5.9 7.1 6.4 7.7.6.6 4.9 5.8 9.5 11.6s8.7 10.7 9 11c.3.3 4.1 5.2 8.5 11 8.8 11.6 8.7 11.4 11.5 15 2 2.5 2 2.5.1-3-1.7-4.7-9.2-26-13.8-38.5-.8-2.2-2-5.4-2.8-7-4.2-9.8-14.7-36.7-14.4-36.9.8-.7 14 8 19.7 12.9 10.4 8.9 21.3 22.8 31.3 40.1 6.1 10.5 24.9 47.9 24.9 49.5 0 .6.7.8 1.6.5.9-.3 2-.6 2.6-.6.6 0 .8-1.1.4-2.8-1-3.9-12.5-40.3-13.6-42.7-.5-1.1-2.5-6.5-4.4-12-1.9-5.5-4.9-13.8-6.6-18.5-1.8-4.7-3.9-10.3-4.6-12.5-.8-2.2-1.9-4.9-2.4-6-.5-1.1-1.9-4.5-3-7.5s-2.4-6.4-2.9-7.5c-.5-1.1-1.6-3.6-2.4-5.5-3.2-7.3-5.8-14.3-5.4-14.6.2-.2 4.4 2.1 9.3 5.2 30.8 19.3 54.8 50.6 74.4 97 2.4 5.4 4.6 10.3 5 10.7.6.7 7-1.7 7-2.7 0-.1-1.2-3.6-2.6-7.7-1.4-4.1-2.7-7.9-2.8-8.4-.4-1.7-5.7-17.9-6.6-20-.4-1.1-3.1-8.5-6-16.5s-6.3-17.2-7.5-20.5c-2.9-7.9-16.2-40.8-18.6-46.1-2.2-5-9.8-22.3-10.7-24.3-1-2.4 20.6 9.6 30.2 16.9 15.2 11.4 30.9 28.5 44.2 48.1 6.1 8.9 18 29 18.9 31.8.6 1.9.7 1.9 4 .3 4-2 4.2-.6-3.1-19.5-13.6-34.7-28.2-68.1-44.9-102-5.3-10.9-9.5-20-9.3-20.2.7-.7 14.3 4.5 21.3 8.1 24.7 12.6 47.6 34 72.7 67.6l6.4 8.6 3.9-3.3 4-3.3-2.7-6.4c-12.5-30.5-53.5-112-67.4-134-1.3-2.1-2.4-4-2.4-4.3 0-1.6 7.7-.1 12.7 2.6zm-496.2 139.2c1.1.3 4.2.8 6.9 1.2 20.5 2.6 45.7 10.8 66.3 21.7 50.6 26.7 89 75.5 102.8 130.8 4.7 18.7 5.7 26.9 6 48 .2 13.6-.2 21.6-1.5 30-2 12.8-2.8 17.7-3.6 20.2-.3.9-.7 2.5-.9 3.5-4 17.1-14.2 40.9-24.5 57.3-16.2 25.9-39.9 49.6-66.3 66.3-10.4 6.6-37.7 19.3-45.7 21.3-.8.2-5.7 1.5-10.9 2.9s-11.5 2.8-14 3.1c-2.5.3-4.8.7-5.1.9-1.9 1.1-16.3 2-32 2-21.6 0-29.5-.8-46-4.6-30.4-7-57.2-19.7-81.5-38.7-15-11.8-38.1-37.2-46.2-50.8-7.1-12.2-10.3-18.1-14.4-27.4-4.1-9.3-9.5-23.7-10.4-28-.1-.8-.8-3.3-1.3-5.5-4.3-16.3-5.7-28.5-5.7-50 0-17.8.7-26.8 3-37.5.3-1.4.7-3.4.9-4.5.2-1.1 1.1-4.9 2-8.5 15-59 55.5-108.3 111-134.9 14.8-7.1 38-14.6 51.6-16.7 1.9-.3 4.2-.7 5-.9.8-.3 4.9-.7 9-1.1 4.1-.3 7.6-.7 7.8-.9.6-.5 35.7.2 37.7.8z"/><path d="M1462.8 1768.5c-.2.2-3 .5-6.4.8-13.9 1.3-27.9 9.8-36.4 22.2-8.3 12-10.6 32.4-5.3 45.8 8.5 21.3 28 34 50.6 33.1 26.7-1.2 48.4-24.5 47.9-51.4-.2-6.4-.3-7.5-1.7-13.5-1.4-5.6-7.7-16.4-12.2-21-8.7-8.6-18.1-13.4-30-15.2-3.5-.6-6.4-.9-6.5-.8z"/></svg>